PathFileType	4	(X/Y/Z)	 s05c0103.trc
DataRate	CameraRate	NumFrames	NumMarkers	Units	OrigDataRate	OrigDataStartFrame	OrigNumFrames
200	200	6	49	mm	200	751	2000
Frame#	Time	racr			lacr			c7			jug			rlel			rdr			llel			ldr			s2			lic			ric			lasi			rasi			rpsi			lpsi			rgt			lgt			rth1			rth2			rth3			rth4			rlfc			rsh1			rsh2			rsh3			rsh4			rlmal			rmmal			rcal			rtoe			rmt5			lth1			lth2			lth4			lth3			llfc			lmfc			lsh1			lsh2			lsh3			lsh4			llmal			lmmal			lcal			ltoe			lmt5			SBIKE			LBIKE			RBIKE			
		X1	Y1	Z1	X2	Y2	Z2	X3	Y3	Z3	X4	Y4	Z4	X5	Y5	Z5	X6	Y6	Z6	X7	Y7	Z7	X8	Y8	Z8	X9	Y9	Z9	X10	Y10	Z10	X11	Y11	Z11	X12	Y12	Z12	X13	Y13	Z13	X14	Y14	Z14	X15	Y15	Z15	X16	Y16	Z16	X17	Y17	Z17	X18	Y18	Z18	X19	Y19	Z19	X20	Y20	Z20	X21	Y21	Z21	X22	Y22	Z22	X23	Y23	Z23	X24	Y24	Z24	X25	Y25	Z25	X26	Y26	Z26	X27	Y27	Z27	X28	Y28	Z28	X29	Y29	Z29	X30	Y30	Z30	X31	Y31	Z31	X32	Y32	Z32	X33	Y33	Z33	X34	Y34	Z34	X35	Y35	Z35	X36	Y36	Z36	X37	Y37	Z37	X38	Y38	Z38	X39	Y39	Z39	X40	Y40	Z40	X41	Y41	Z41	X42	Y42	Z42	X43	Y43	Z43	X44	Y44	Z44	X45	Y45	Z45	X46	Y46	Z46	X47	Y47	Z47	X48	Y48	Z48	X49	Y49	Z49	
751	3.7550	473.143277	1251.643183	-144.482586	479.668999	1258.215357	-398.718496	464.289913	1323.434330	-275.142169	397.252592	1176.588603	-278.885921	490.851271	1029.955432	16.586021	695.366659	919.602571	-61.109289	452.902388	1019.125234	-557.652002	681.874970	941.205767	-460.391884	-106.857067	1179.058138	-272.824660	35.892094	1182.145979	-418.836760	39.128076	1190.344857	-133.287356	80.445553	1126.907610	-379.042812	79.350706	1130.473872	-162.353093	-71.230459	1225.135687	-232.469485	-68.358854	1226.975191	-319.188197	-2.795778	1072.039711	-102.656995	-26.874960	1085.101707	-441.786552	91.915563	1003.276105	-85.416673	174.241786	969.358977	-78.673773	226.448542	898.214365	-77.116184	196.053966	996.522973	-90.834239	330.251981	791.034688	-93.652117	239.821630	729.481922	-69.457909	192.614646	655.863215	-86.193296	117.951411	613.629764	-94.073333	216.546345	637.316386	-110.407132	25.295973	520.971367	-106.070976	58.533747	537.899750	-184.308561	-46.226633	543.106181	-155.943722	152.972893	322.950182	-147.304579	61.473186	375.302871	-85.214065	75.498569	978.023064	-457.818857	154.734235	945.215136	-451.966691	177.555600	973.118034	-440.227199	208.113539	872.581581	-446.224758	311.790916	768.731769	-413.396090	296.649338	751.978647	-306.985508	277.356713	644.325804	-441.430152	285.713669	557.814845	-430.285852	249.261582	477.018428	-432.314373	314.154482	555.503296	-404.341081	233.858119	354.865002	-428.037089	NaN	NaN	NaN	172.561980	310.969731	-386.587348	467.647033	303.758912	-392.916854	360.584884	274.720109	-455.955240	-258.533166	896.099465	-281.101952	-43.607953	84.723248	-474.714718	-51.852910	80.106698	-77.190160	
752	3.7600	473.651018	1252.965270	-142.374589	481.062822	1259.081419	-397.458989	465.369241	1324.416552	-273.737819	398.194266	1177.462031	-277.670131	490.868667	1030.151830	16.627840	695.532729	919.672648	-61.079736	455.092795	1021.205763	-558.446244	682.579409	941.098769	-460.271231	-105.606375	1179.516782	-274.982928	38.189485	1182.171118	-420.013352	39.266158	1191.568080	-134.600454	82.256226	1126.801702	-379.796410	79.929529	1131.860094	-163.325161	-70.334834	1225.415807	-234.421430	-66.822500	1227.144141	-321.277222	-1.636999	1074.427960	-103.435536	-25.351849	1084.406326	-442.729770	93.517295	1006.883998	-84.907678	176.721755	974.744960	-78.556045	230.418204	904.706350	-76.576607	197.896811	1002.171302	-91.165107	336.090684	799.627485	-93.389979	244.901884	738.277605	-69.576221	197.894104	664.855205	-86.236685	123.009755	623.006360	-94.473220	221.136120	646.031046	-110.730334	29.966306	531.152209	-106.284099	63.323184	547.694697	-184.542611	-41.000026	553.687124	-155.865531	156.225761	332.092846	-147.293329	65.172288	385.341101	-85.233220	75.228720	975.530618	-458.942579	153.633278	940.538306	-452.709740	177.177702	967.714942	-441.056929	205.014394	866.481121	-446.855861	305.834662	760.127891	-413.833511	290.071055	743.324217	-307.708610	271.655700	635.302414	-442.324589	281.039105	548.836276	-431.056657	245.586626	467.716332	-433.030836	309.526355	547.036586	-405.217785	231.490880	346.237850	-428.569782	NaN	NaN	NaN	170.023527	303.117451	-387.115813	465.068468	293.000169	-392.907648	357.725708	264.947052	-456.033737	-258.517735	896.160764	-281.167584	-43.566859	84.743814	-474.715588	-51.812072	80.125508	-77.209731	
753	3.7650	474.050452	1253.662852	-141.261782	482.589569	1260.011353	-396.348754	466.441191	1325.170583	-272.408758	399.163409	1178.454325	-276.430189	491.214131	1030.302795	16.785586	695.742966	919.782647	-61.056984	457.473167	1023.327067	-559.272058	683.288493	940.937506	-459.984660	-104.328709	1180.001641	-277.237941	40.436421	1182.007158	-421.142781	39.380829	1192.757052	-135.938740	84.077754	1126.706700	-380.534087	80.683891	1133.230873	-164.136560	-69.238965	1225.986622	-236.274300	-65.340264	1227.259318	-323.426388	-0.533294	1076.662499	-104.203184	-23.719974	1083.748002	-443.679935	95.414797	1010.547155	-84.555212	179.218003	980.155469	-78.776004	234.360045	911.543918	-76.207297	199.619706	1008.052841	-91.858972	341.930159	808.277226	-93.013864	250.555465	747.098256	-69.492890	203.341624	673.865297	-86.322430	128.295426	632.344537	-94.734609	226.550007	654.836190	-110.693341	35.046260	541.059053	-106.506649	68.488482	557.447673	-184.714324	-36.029748	563.632204	-156.437355	160.141448	341.314787	-147.225552	69.445601	394.998363	-85.336756	75.039445	972.997888	-459.969064	152.408730	935.871924	-453.529505	176.668039	962.425279	-441.914768	201.757295	860.438875	-447.509240	299.740393	751.625966	-414.590067	284.008216	735.197944	-308.663093	265.735211	626.477123	-443.328745	275.998017	540.213492	-431.886108	241.373892	458.619159	-433.719845	304.491237	538.778551	-406.099841	228.604341	338.035381	-429.157427	NaN	NaN	NaN	166.876501	295.476254	-387.640714	461.855373	282.485276	-392.856827	354.370531	255.455507	-456.159473	-258.410073	896.193133	-281.264742	-43.542570	84.764354	-474.723460	-51.780333	80.140033	-77.213577	
754	3.7700	474.493153	1254.460015	-140.117735	483.921222	1260.976967	-395.113472	467.416733	1325.970495	-271.026147	400.154502	1179.053854	-275.118502	491.610299	1030.446263	16.998441	695.995344	919.937420	-61.037472	459.869833	1025.536523	-560.253121	684.081193	940.742511	-459.802274	-103.009870	1180.323256	-279.451785	42.755300	1182.125098	-422.494285	39.385756	1194.018505	-137.278624	85.893476	1126.612990	-381.252526	81.545843	1134.921227	-164.618875	-68.314197	1226.551797	-238.705615	-63.847143	1227.460484	-325.578860	0.476931	1078.963038	-105.145718	-22.046992	1083.116874	-444.599595	97.247323	1014.497323	-84.619428	181.597776	986.022881	-79.252379	238.262542	918.571841	-76.033842	201.318892	1014.012619	-92.701939	347.749472	817.161535	-92.754985	256.142342	756.005754	-69.741433	208.903736	683.000592	-86.292936	133.746188	641.668112	-94.909405	232.697081	663.821082	-110.364849	40.427317	550.693607	-106.664182	73.276297	567.183095	-184.752105	-30.585583	573.602398	-156.312554	164.570932	350.280538	-147.256587	74.207925	404.567848	-85.409766	74.781377	970.465221	-460.987472	151.049177	931.289202	-454.400890	176.042872	957.116636	-442.740178	198.345609	854.521226	-448.196886	293.492619	743.283265	-415.350036	276.479758	727.380976	-309.040417	259.763631	618.018980	-444.550261	270.561069	532.062763	-432.808599	236.709404	449.924345	-434.462256	299.558445	531.044631	-407.833263	225.133480	330.126099	-429.750126	NaN	NaN	NaN	163.236704	288.200667	-388.212521	458.123522	272.194614	-392.780905	350.443929	246.112880	-456.320359	-258.294626	896.224607	-281.365943	-43.500954	84.802624	-474.736512	-51.759320	80.171429	-77.230967	
755	3.7750	474.755953	1255.326413	-139.051126	485.331163	1261.912172	-393.956950	468.485963	1326.704513	-269.783434	400.938355	1180.007431	-273.777177	491.923620	1030.622213	17.207724	696.253024	920.138592	-61.054933	462.437911	1027.833692	-561.251039	684.850404	940.555356	-459.592896	-101.643169	1180.600653	-281.492731	44.966620	1182.028956	-423.632797	39.431258	1195.187408	-138.696618	87.686593	1126.511133	-381.948757	82.329356	1136.452673	-165.129818	-67.469640	1226.923498	-240.910660	-62.431101	1227.582086	-327.740955	1.611833	1081.127787	-106.127290	-20.395702	1082.447128	-445.558953	99.119357	1018.844516	-85.245599	184.009016	992.152237	-79.952077	242.095073	925.852739	-76.104935	203.149158	1020.415542	-93.973691	353.524893	826.119885	-92.568619	261.949354	764.896939	-69.660680	215.516351	692.107934	-85.711589	139.329468	650.884046	-94.963251	237.547975	673.006110	-110.592004	46.033507	560.056186	-106.824704	77.895215	576.301214	-184.835441	-25.149769	582.989223	-156.895978	169.732926	359.454274	-147.112813	79.530338	413.784744	-85.455939	74.423540	967.944266	-462.022122	149.588572	926.734128	-455.262607	175.268222	951.867635	-443.624350	194.776422	848.638858	-449.027340	287.241153	735.199284	-416.145672	269.461740	719.776814	-310.312166	253.726299	609.924252	-445.638410	264.981116	524.033241	-433.697138	231.634367	441.770376	-435.261169	293.967885	523.248799	-408.715685	221.182309	322.429282	-430.273731	NaN	NaN	NaN	159.013454	281.380994	-388.825054	453.790102	262.136195	-392.697127	346.020082	237.223015	-456.446511	-258.270683	896.307234	-281.348646	-43.469179	84.835199	-474.742489	-51.738002	80.217269	-77.234195	
756	3.7800	474.999352	1256.068103	-137.867143	486.516131	1262.802792	-392.625258	469.372271	1327.555572	-268.468677	401.778291	1180.745537	-272.624920	492.277228	1030.836124	17.530571	696.485591	920.379673	-61.147337	464.886303	1030.154926	-562.652014	685.759754	940.385697	-459.502951	-100.257464	1180.805858	-283.288657	47.110020	1181.792070	-424.597350	39.365786	1196.279415	-140.052554	89.440216	1126.392386	-382.619517	83.123908	1137.739895	-166.303387	-66.675286	1227.347846	-243.384404	-60.985897	1227.686455	-329.807405	2.867105	1083.371753	-107.044090	-18.826380	1081.901836	-446.733169	100.822167	1023.321824	-86.683733	186.453124	998.476290	-80.742974	245.765653	933.311906	-76.384217	205.206604	1027.287217	-94.637781	359.131073	835.275411	-92.365884	267.676955	773.917604	-69.576303	221.404618	701.407494	-85.485977	145.042398	659.934837	-95.009664	243.341149	681.994469	-110.351310	51.846052	569.055784	-106.892285	83.652774	585.209734	-184.770202	-18.527549	592.314314	-156.168679	175.317748	368.291753	-147.171329	85.269947	422.763997	-85.497154	73.890799	965.496211	-463.172540	148.019100	922.301262	-456.203819	174.306489	946.746693	-444.538602	191.079310	843.065216	-449.922881	280.836257	727.576217	-417.189883	263.341134	712.065182	-311.854440	247.620479	602.284097	-446.766872	259.252653	516.518556	-434.629220	226.160286	434.070301	-436.070165	288.109286	515.933321	-409.620847	216.667281	315.424031	-430.826068	NaN	NaN	NaN	154.384949	274.891925	-389.461909	448.928927	252.357774	-392.549066	341.076503	228.601847	-456.555289	-258.079962	896.387736	-281.480355	-43.443013	84.869510	-474.751268	-51.706071	80.224211	-77.259140	
